<svg xmlns="http://www.w3.org/2000/svg" xmlns:xlink="http://www.w3.org/1999/xlink" fill="none" version="1.1" width="16" height="16" viewBox="0 0 16 16"><g><path d="M7.99999,16C3.58173,16,0,12.4183,0,8C0,3.58172,3.58173,0,7.99999,0C12.4183,0,16,3.58172,16,8C16,10.1217,15.1571,12.1566,13.6569,13.6568C12.1566,15.1571,10.1217,16,7.99999,16ZM4.95095,2.97101L10.9434,2.97101C11.3252,2.97101,11.6348,3.25316,11.6348,3.60122C11.6348,3.94927,11.3252,4.23142,10.9434,4.23142L8.62955,4.23142L8.62955,5.38775C10.7436,5.49495,12.4046,7.23707,12.4108,9.35388L12.4108,10.1942C12.4107,10.5421,12.1286,10.8242,11.7806,10.8242C11.4325,10.8242,11.1505,10.5421,11.1504,10.1942L11.1504,9.35388C11.1455,7.9321,10.0474,6.75346,8.62955,6.6482L8.62955,12.5301C8.62955,12.8781,8.34739,13.1603,7.99936,13.1603C7.65126,13.1603,7.36917,12.8781,7.36917,12.5301L7.36917,6.6482C5.95129,6.75346,4.85318,7.9321,4.84831,9.35388L4.84831,10.1942C4.84826,10.5421,4.56612,10.8242,4.21811,10.8242C3.8701,10.8242,3.58796,10.5421,3.58791,10.1942L3.58791,9.35388C3.59412,7.23707,5.25508,5.49495,7.36917,5.38775L7.36917,4.23142L4.95095,4.23142C4.56909,4.23142,4.25952,3.94927,4.25952,3.60122C4.25952,3.25316,4.56909,2.97101,4.95095,2.97101Z" fill-rule="evenodd" fill="#FFFFFF" fill-opacity="1" style="mix-blend-mode:passthrough"/></g></svg>