<svg xmlns="http://www.w3.org/2000/svg" xmlns:xlink="http://www.w3.org/1999/xlink" fill="none" version="1.1" width="13.133331298828125" height="11.13330078125" viewBox="0 0 13.133331298828125 11.13330078125"><g><g><path d="M6.56667,0.8C4.88457,0.8,3.41595,0.885567,2.37918,0.969638C1.61213,1.03184,1.01555,1.61895,0.947067,2.3807C0.870921,3.2277,0.8,4.34491,0.8,5.56663C0.8,6.78842,0.870921,7.90563,0.947067,8.75261C1.01555,9.51435,1.61213,10.1015,2.37918,10.1637C3.41596,10.2477,4.88457,10.3333,6.56667,10.3333C8.24895,10.3333,9.71764,10.2477,10.7545,10.1637C11.5214,10.1014,12.1179,9.51454,12.1863,8.75294C12.2625,7.9063,12.3333,6.7893,12.3333,5.56663C12.3333,4.34403,12.2625,3.22702,12.1863,2.38038C12.1179,1.6188,11.5214,1.03186,10.7545,0.969661C9.71764,0.88558,8.24895,0.8,6.56667,0.8ZM2.31451,0.172259C3.36759,0.0868626,4.85833,0,6.56667,0C8.27519,0,9.76603,0.0868759,10.8191,0.172279C11.9694,0.265568,12.8793,1.15452,12.9831,2.30874C13.0608,3.17269,13.1333,4.31437,13.1333,5.56663C13.1333,6.81897,13.0608,7.96063,12.9831,8.82461C12.8793,9.97879,11.9694,10.8678,10.8191,10.9611C9.76603,11.0465,8.27519,11.1333,6.56667,11.1333C4.85833,11.1333,3.36759,11.0465,2.31451,10.9611C1.16405,10.8678,0.254057,9.97858,0.150283,8.82427C0.0725787,7.95997,0,6.81811,0,5.56663C0,4.31522,0.0725787,3.17334,0.150283,2.30907C0.254057,1.15474,1.16405,0.265548,2.31451,0.172259Z" fill="#FFFFFF" fill-opacity="1" style="mix-blend-mode:passthrough"/></g><g><path d="M9.20001220703125,4.634625244140625L5.10001220703125,4.634625244140625C4.87910020703125,4.634625244140625,4.70001220703125,4.455518244140625,4.70001220703125,4.234625244140625C4.70001220703125,4.013713244140625,4.87910020703125,3.834625244140625,5.10001220703125,3.834625244140625L9.20001220703125,3.834625244140625C9.42090220703125,3.834625244140625,9.60001220703125,4.013713244140625,9.60001220703125,4.234625244140625C9.60001220703125,4.455518244140625,9.42090220703125,4.634625244140625,9.20001220703125,4.634625244140625Z" fill="#FFFFFF" fill-opacity="1" style="mix-blend-mode:passthrough"/></g><g><path d="M10.20001220703125,7.30128173828125L6.10001220703125,7.30128173828125C5.87911820703125,7.30128173828125,5.70001220703125,7.12217473828125,5.70001220703125,6.90128173828125C5.70001220703125,6.68038773828125,5.87911820703125,6.50128173828125,6.10001220703125,6.50128173828125L10.20001220703125,6.50128173828125C10.42090220703125,6.50128173828125,10.60001220703125,6.68038773828125,10.60001220703125,6.90128173828125C10.60001220703125,7.12217473828125,10.42090220703125,7.30128173828125,10.20001220703125,7.30128173828125Z" fill="#FFFFFF" fill-opacity="1" style="mix-blend-mode:passthrough"/></g><g><path d="M3.766685712890625,4.234625244140625C3.766685712890625,4.455518244140625,3.5876057128906247,4.634625244140625,3.366688712890625,4.634625244140625L2.933355712890625,4.634625244140625C2.712443712890625,4.634625244140625,2.533355712890625,4.455518244140625,2.533355712890625,4.234625244140625C2.533355712890625,4.013713244140625,2.712443712890625,3.834625244140625,2.933355712890625,3.834625244140625L3.366688712890625,3.834625244140625C3.5876057128906247,3.834625244140625,3.766685712890625,4.013713244140625,3.766685712890625,4.234625244140625Z" fill="#FFFFFF" fill-opacity="1" style="mix-blend-mode:passthrough"/></g><g><path d="M4.7666857128906255,6.90128173828125C4.7666857128906255,7.12217473828125,4.587605712890625,7.30128173828125,4.366688712890625,7.30128173828125L3.933355712890625,7.30128173828125C3.712443712890625,7.30128173828125,3.533355712890625,7.12217473828125,3.533355712890625,6.90128173828125C3.533355712890625,6.68038773828125,3.712443712890625,6.50128173828125,3.933355712890625,6.50128173828125L4.366688712890625,6.50128173828125C4.587605712890625,6.50128173828125,4.7666857128906255,6.68038773828125,4.7666857128906255,6.90128173828125Z" fill="#FFFFFF" fill-opacity="1" style="mix-blend-mode:passthrough"/></g></g></svg>