<svg xmlns="http://www.w3.org/2000/svg" xmlns:xlink="http://www.w3.org/1999/xlink" fill="none" version="1.1" width="16" height="16" viewBox="0 0 16 16"><g><path d="M12.0558,4.75073C11.3132,4.63626,10.6277,4.12112,10.3421,3.43427L9.02823,0.686852C8.62837,-0.228951,7.37161,-0.228951,6.91462,0.686852L5.65792,3.43427C5.3152,4.12112,4.68681,4.63626,3.9442,4.75073L0.97376,5.20863C0.0597793,5.32311,-0.340083,6.4679,0.345398,7.15472L2.57323,9.44422C3.08734,9.95937,3.31584,10.7034,3.20159,11.4476L2.68748,14.6529C2.5161,15.6259,3.54434,16.3127,4.40119,15.8548L6.91462,14.4811C7.60014,14.0805,8.45698,14.0805,9.14249,14.4811L11.6559,15.8548C12.5128,16.3127,13.4839,15.6259,13.3696,14.6529L12.7984,11.4476C12.683,10.7034,12.9127,9.95937,13.4268,9.44422L15.6546,7.15472C16.3401,6.4679,15.9402,5.32311,15.0262,5.20863L12.0558,4.75073Z" fill-rule="evenodd" fill="#FFFFFF" fill-opacity="1" style="mix-blend-mode:passthrough"/></g></svg>