<svg xmlns="http://www.w3.org/2000/svg" xmlns:xlink="http://www.w3.org/1999/xlink" fill="none" version="1.1" width="17" height="14" viewBox="0 0 17 14"><g><path d="M7.51223,4.43282L7.51223,1.01051C7.51223,0.452423,7.98398,0,8.56595,0C8.81308,0,9.05229,0.0832648,9.24184,0.235242L16.564,6.10546C17.0791,6.51846,17.1476,7.25381,16.717,7.74787C16.6706,7.801,16.6194,7.85007,16.564,7.89452L9.24184,13.7647C8.79538,14.1227,8.13082,14.0658,7.75753,13.6376C7.599,13.4558,7.51223,13.2264,7.51223,12.9895L7.51223,9.83709C3.96292,9.83709,2.38769,11.1381,0.404926,13.6676C0.336997,13.7542,0,13.8438,0,13.4485C0,8.55154,1.34634,4.43282,7.51223,4.43282Z" fill="#FFFFFF" fill-opacity="1" style="mix-blend-mode:passthrough"/></g></svg>