<svg xmlns="http://www.w3.org/2000/svg" xmlns:xlink="http://www.w3.org/1999/xlink" fill="none" version="1.1" width="14.666666984558105" height="14.666666984558105" viewBox="0 0 14.666666984558105 14.666666984558105"><g><path d="M7.33333,1.33333C4.01963,1.33333,1.33333,4.01963,1.33333,7.33333C1.33333,10.6471,4.01963,13.3333,7.33333,13.3333C10.6471,13.3333,13.3333,10.6471,13.3333,7.33333C13.3333,4.01963,10.6471,1.33333,7.33333,1.33333C7.33333,1.33333,7.33333,1.33333,7.33333,1.33333ZM0,7.33333C0,3.28325,3.28325,0,7.33333,0C11.3834,0,14.6667,3.28325,14.6667,7.33333C14.6667,11.3834,11.3834,14.6667,7.33333,14.6667C3.28325,14.6667,0,11.3834,0,7.33333C0,7.33333,0,7.33333,0,7.33333ZM5.68543,4.07889C5.9022,3.96287,6.16523,3.97559,6.3698,4.11197C6.3698,4.11197,10.3698,6.7786,10.3698,6.7786C10.5553,6.90227,10.6667,7.1104,10.6667,7.33333C10.6667,7.55627,10.5553,7.7644,10.3698,7.88807C10.3698,7.88807,6.3698,10.5547,6.3698,10.5547C6.16523,10.6911,5.9022,10.7038,5.68543,10.5878C5.46865,10.4718,5.33333,10.2459,5.33333,10C5.33333,10,5.33333,4.66667,5.33333,4.66667C5.33333,4.4208,5.46865,4.19489,5.68543,4.07889C5.68543,4.07889,5.68543,4.07889,5.68543,4.07889ZM6.66667,5.91235C6.66667,5.91235,6.66667,8.75433,6.66667,8.75433C6.66667,8.75433,8.79813,7.33333,8.79813,7.33333C8.79813,7.33333,6.66667,5.91235,6.66667,5.91235C6.66667,5.91235,6.66667,5.91235,6.66667,5.91235Z" fill-rule="evenodd" fill="#FFFFFF" fill-opacity="1"/></g></svg>