<svg xmlns="http://www.w3.org/2000/svg" xmlns:xlink="http://www.w3.org/1999/xlink" fill="none" version="1.1" width="16" height="16" viewBox="0 0 16 16"><g><path d="M3.20034,16L3.20034,5.66018L1.9956,5.66018C0.89378,5.66018,0,6.55077,0,7.65015L0,14.01C0,15.1094,0.89378,16,1.9956,16L3.20034,16ZM4.40034,16L4.40034,5.63761C6.02325,5.05413,6.94549,3.5707,7.16803,1.10919C7.2552,0.145407,8.17322,-0.255093,9.04811,0.167277C9.91619,0.586379,10.4888,1.6448,10.4888,3.05894C10.4888,3.90472,10.3832,4.77191,10.1724,5.66018L14,5.66018C15.1045,5.66018,16,6.55558,16,7.66016C16,7.82145,15.9805,7.98215,15.9419,8.13873L14.6795,13.2614C14.2832,14.8697,12.8405,16,11.1841,16L4.40034,16L4.40034,16Z" fill-rule="evenodd" fill="#FFFFFF" fill-opacity="1" style="mix-blend-mode:passthrough"/></g></svg>