<svg xmlns="http://www.w3.org/2000/svg" xmlns:xlink="http://www.w3.org/1999/xlink" fill="none" version="1.1" width="13.133331298828125" height="11.13330078125" viewBox="0 0 13.133331298828125 11.13330078125"><g><g><path d="M6.56667,0.8C4.88457,0.8,3.41595,0.885567,2.37918,0.969638C1.61213,1.03184,1.01555,1.61895,0.947067,2.3807C0.870921,3.2277,0.8,4.34491,0.8,5.56663C0.8,6.78842,0.870921,7.90563,0.947067,8.75261C1.01555,9.51435,1.61213,10.1015,2.37918,10.1637C3.41596,10.2477,4.88457,10.3333,6.56667,10.3333C8.24895,10.3333,9.71764,10.2477,10.7545,10.1637C11.5214,10.1014,12.1179,9.51454,12.1863,8.75294C12.2625,7.9063,12.3333,6.7893,12.3333,5.56663C12.3333,4.34403,12.2625,3.22702,12.1863,2.38038C12.1179,1.6188,11.5214,1.03186,10.7545,0.969661C9.71764,0.88558,8.24895,0.8,6.56667,0.8ZM2.31451,0.172259C3.36759,0.0868626,4.85833,0,6.56667,0C8.27519,0,9.76603,0.0868759,10.8191,0.172279C11.9694,0.265568,12.8793,1.15452,12.9831,2.30874C13.0608,3.17269,13.1333,4.31437,13.1333,5.56663C13.1333,6.81897,13.0608,7.96063,12.9831,8.82461C12.8793,9.97879,11.9694,10.8678,10.8191,10.9611C9.76603,11.0465,8.27519,11.1333,6.56667,11.1333C4.85833,11.1333,3.36759,11.0465,2.31451,10.9611C1.16405,10.8678,0.254057,9.97858,0.150283,8.82427C0.0725787,7.95997,0,6.81811,0,5.56663C0,4.31522,0.0725787,3.17334,0.150283,2.30907C0.254057,1.15474,1.16405,0.265548,2.31451,0.172259Z" fill="#FFFFFF" fill-opacity="1" style="mix-blend-mode:passthrough"/></g><g><path d="M8.352868701171875,4.924929541015625C8.847878701171876,5.210759541015625,8.847878701171876,5.9252895410156246,8.352808701171874,6.211069541015625L6.2304687011718745,7.436449541015625C5.735452701171875,7.722229541015625,5.116666412351875,7.3649695410156255,5.116668701171875,6.793359541015625L5.116668701171875,4.342693541015625C5.116668701171875,3.771070541015625,5.735452701171875,3.413811541015625,6.2304687011718745,3.699621541015625L8.352868701171875,4.924929541015625Z" fill="#FFFFFF" fill-opacity="1" style="mix-blend-mode:passthrough"/></g></g></svg>