<svg xmlns="http://www.w3.org/2000/svg" xmlns:xlink="http://www.w3.org/1999/xlink" fill="none" version="1.1" width="11.666666030883789" height="11.666666030883789" viewBox="0 0 11.666666030883789 11.666666030883789"><g><path d="M5.83333,0C9.05333,0,11.6667,2.61333,11.6667,5.83333C11.6667,9.05333,9.05333,11.6667,5.83333,11.6667C2.61333,11.6667,0,9.05333,0,5.83333C0,2.61333,2.61333,0,5.83333,0ZM2.34675,7.826C3.20308,9.1035,4.48875,9.91667,5.92667,9.91667C7.364,9.91667,8.65025,9.10408,9.506,7.826C8.53518,6.91868,7.25547,6.4148,5.92667,6.41667C4.59766,6.41466,3.31771,6.91854,2.34675,7.826ZM5.83333,5.25C6.79983,5.25,7.58333,4.4665,7.58333,3.5C7.58333,2.5335,6.79983,1.75,5.83333,1.75C4.86683,1.75,4.08333,2.5335,4.08333,3.5C4.08333,4.4665,4.86683,5.25,5.83333,5.25Z" fill="#FFFFFF" fill-opacity="1" style="mix-blend-mode:passthrough"/></g></svg>