<svg xmlns="http://www.w3.org/2000/svg" xmlns:xlink="http://www.w3.org/1999/xlink" fill="none" version="1.1" width="16" height="16" viewBox="0 0 16 16"><defs><clipPath id="master_svg0_2_993"><rect x="0" y="0" width="16" height="16" rx="0"/></clipPath></defs><g clip-path="url(#master_svg0_2_993)"><g><path d="M2.585787,1.2524434941406248C2.9608600000000003,0.877369494140625,3.46957,0.666656494140625,4,0.666656494140625C4,0.666656494140625,9.33333,0.666656494140625,9.33333,0.666656494140625C9.51013,0.666656494140625,9.67973,0.736894494140625,9.80473,0.861918494140625C9.80473,0.861918494140625,13.8047,4.861916494140625,13.8047,4.861916494140625C13.9297,4.986946494140625,14,5.156506494140625,14,5.333326494140625C14,5.333326494140625,14,13.333356494140626,14,13.333356494140626C14,13.863756494140626,13.7893,14.372456494140625,13.4142,14.747556494140625C13.0391,15.122556494140625,12.5305,15.333356494140626,12,15.333356494140626C12,15.333356494140626,4,15.333356494140626,4,15.333356494140626C3.46957,15.333356494140626,2.9608600000000003,15.122556494140625,2.585787,14.747556494140625C2.210713,14.372456494140625,2,13.863756494140626,2,13.333356494140626C2,13.333356494140626,2,2.666656494140625,2,2.666656494140625C2,2.136226494140625,2.210713,1.627516494140625,2.585787,1.2524434941406248C2.585787,1.2524434941406248,2.585787,1.2524434941406248,2.585787,1.2524434941406248ZM4,1.999986494140625C3.8231900000000003,1.999986494140625,3.65362,2.070226494140625,3.52859,2.195246494140625C3.40357,2.320276494140625,3.33333,2.4898464941406253,3.33333,2.666656494140625C3.33333,2.666656494140625,3.33333,13.333356494140626,3.33333,13.333356494140626C3.33333,13.510156494140626,3.40357,13.679756494140625,3.52859,13.804756494140625C3.65362,13.929756494140625,3.8231900000000003,13.999956494140624,4,13.999956494140624C4,13.999956494140624,12,13.999956494140624,12,13.999956494140624C12.1768,13.999956494140624,12.3464,13.929756494140625,12.4714,13.804756494140625C12.5964,13.679756494140625,12.6667,13.510156494140626,12.6667,13.333356494140626C12.6667,13.333356494140626,12.6667,5.999986494140625,12.6667,5.999986494140625C12.6667,5.999986494140625,9.33333,5.999986494140625,9.33333,5.999986494140625C8.96513,5.999986494140625,8.66667,5.701506494140625,8.66667,5.333326494140625C8.66667,5.333326494140625,8.66667,1.999986494140625,8.66667,1.999986494140625C8.66667,1.999986494140625,4,1.999986494140625,4,1.999986494140625C4,1.999986494140625,4,1.999986494140625,4,1.999986494140625ZM10,2.942796494140625C10,2.942796494140625,11.72387,4.666656494140625,11.72387,4.666656494140625C11.72387,4.666656494140625,10,4.666656494140625,10,4.666656494140625C10,4.666656494140625,10,2.942796494140625,10,2.942796494140625C10,2.942796494140625,10,2.942796494140625,10,2.942796494140625ZM4.66667,5.999986494140625C4.66667,5.631806494140625,4.9651499999999995,5.333326494140625,5.33333,5.333326494140625C5.33333,5.333326494140625,6.66667,5.333326494140625,6.66667,5.333326494140625C7.03485,5.333326494140625,7.33333,5.631806494140625,7.33333,5.999986494140625C7.33333,6.368176494140625,7.03485,6.666656494140625,6.66667,6.666656494140625C6.66667,6.666656494140625,5.33333,6.666656494140625,5.33333,6.666656494140625C4.9651499999999995,6.666656494140625,4.66667,6.368176494140625,4.66667,5.999986494140625C4.66667,5.999986494140625,4.66667,5.999986494140625,4.66667,5.999986494140625ZM4.66667,8.666656494140625C4.66667,8.298456494140625,4.9651499999999995,7.999986494140625,5.33333,7.999986494140625C5.33333,7.999986494140625,10.66667,7.999986494140625,10.66667,7.999986494140625C11.03487,7.999986494140625,11.33333,8.298456494140625,11.33333,8.666656494140625C11.33333,9.034856494140625,11.03487,9.333326494140625,10.66667,9.333326494140625C10.66667,9.333326494140625,5.33333,9.333326494140625,5.33333,9.333326494140625C4.9651499999999995,9.333326494140625,4.66667,9.034856494140625,4.66667,8.666656494140625C4.66667,8.666656494140625,4.66667,8.666656494140625,4.66667,8.666656494140625ZM4.66667,11.333356494140626C4.66667,10.965156494140626,4.9651499999999995,10.666656494140625,5.33333,10.666656494140625C5.33333,10.666656494140625,10.66667,10.666656494140625,10.66667,10.666656494140625C11.03487,10.666656494140625,11.33333,10.965156494140626,11.33333,11.333356494140626C11.33333,11.701556494140625,11.03487,11.999956494140624,10.66667,11.999956494140624C10.66667,11.999956494140624,5.33333,11.999956494140624,5.33333,11.999956494140624C4.9651499999999995,11.999956494140624,4.66667,11.701556494140625,4.66667,11.333356494140626C4.66667,11.333356494140626,4.66667,11.333356494140626,4.66667,11.333356494140626Z" fill-rule="evenodd" fill="#FFFFFF" fill-opacity="1"/></g></g></svg>