<svg xmlns="http://www.w3.org/2000/svg" xmlns:xlink="http://www.w3.org/1999/xlink" fill="none" version="1.1" width="16" height="16" viewBox="0 0 16 16"><defs><clipPath id="master_svg0_2_0354"><rect x="0" y="0" width="16" height="16" rx="0"/></clipPath></defs><g clip-path="url(#master_svg0_2_0354)"><g><path d="M9.4782,2.878280419921875C8.6128,2.6279504199218753,7.698,2.600940419921875,6.81933,2.799760419921875C5.94061,2.998580419921875,5.12658,3.416750419921875,4.4532,4.015260419921875C3.77981,4.613760419921875,3.26902,5.373100419921875,2.96848,6.222420419921875C2.84565,6.569520419921875,2.4647,6.751320419921875,2.1176,6.628500419921875C1.77051,6.505670419921875,1.58869,6.124720419921875,1.71152,5.777620419921875C2.0872,4.715980419921875,2.72569,3.766810419921875,3.56743,3.0186704199218752C4.40915,2.270537419921875,5.42668,1.747819419921875,6.52507,1.499295419921875C7.62347,1.250771119921875,8.76687,1.284541819921875,9.84873,1.5974554199218751C10.9271,1.909373419921875,11.9091,2.488530419921875,12.7039,3.2811404199218748C12.7039,3.2811404199218748,14.6667,5.125440419921874,14.6667,5.125440419921874C14.6667,5.125440419921874,14.6667,2.666680419921875,14.6667,2.666680419921875C14.6667,2.298497419921875,14.9651,2.000019419921875,15.3333,2.000019419921875C15.7015,2.000019419921875,16,2.298497419921875,16,2.666680419921875C16,2.666680419921875,16,6.666680419921875,16,6.666680419921875C16,7.034880419921875,15.7015,7.333350419921875,15.3333,7.333350419921875C15.3333,7.333350419921875,11.3333,7.333350419921875,11.3333,7.333350419921875C10.9651,7.333350419921875,10.6667,7.034880419921875,10.6667,6.666680419921875C10.6667,6.298500419921875,10.9651,6.000020419921875,11.3333,6.000020419921875C11.3333,6.000020419921875,13.6503,6.000020419921875,13.6503,6.000020419921875C13.6503,6.000020419921875,11.7835,4.2458604199218755,11.7835,4.2458604199218755C11.7784,4.241080419921875,11.7734,4.2362404199218755,11.7685,4.231300419921875C11.1316,3.594100419921875,10.3437,3.128620419921875,9.4782,2.878280419921875C9.4782,2.878280419921875,9.4782,2.878280419921875,9.4782,2.878280419921875ZM0,9.333330419921875C0,8.965130419921875,0.298477,8.666660419921875,0.666667,8.666660419921875C0.666667,8.666660419921875,4.66667,8.666660419921875,4.66667,8.666660419921875C5.03485,8.666660419921875,5.33333,8.965130419921875,5.33333,9.333330419921875C5.33333,9.701530419921875,5.03485,10.000000419921875,4.66667,10.000000419921875C4.66667,10.000000419921875,2.3497,10.000000419921875,2.3497,10.000000419921875C2.3497,10.000000419921875,4.21652,11.754230419921875,4.21652,11.754230419921875C4.22159,11.758930419921874,4.2266,11.763830419921876,4.23152,11.768730419921875C4.86841,12.405930419921875,5.65633,12.871430419921875,6.52178,13.121730419921874C7.3872,13.372030419921876,8.302,13.399130419921875,9.18067,13.200230419921875C10.0594,13.001430419921874,10.8734,12.583230419921875,11.5468,11.984830419921876C12.2202,11.386230419921874,12.731,10.626930419921875,13.0315,9.777600419921875C13.1543,9.430530419921874,13.5353,9.248730419921875,13.8824,9.371530419921875C14.2295,9.494400419921876,14.4113,9.875330419921875,14.2885,10.222400419921875C13.9128,11.284060419921875,13.2743,12.233230419921876,12.4326,12.981430419921875C11.5909,13.729530419921876,10.5733,14.252230419921874,9.47493,14.500730419921876C8.37653,14.749230419921876,7.23313,14.715530419921874,6.1513,14.402630419921875C5.07293,14.090630419921874,4.09085,13.511530419921876,3.29607,12.718830419921876C3.29607,12.718830419921876,1.33333,10.874600419921874,1.33333,10.874600419921874C1.33333,10.874600419921874,1.33333,13.333330419921875,1.33333,13.333330419921875C1.33333,13.701530419921875,1.03485,14.000030419921876,0.666667,14.000030419921876C0.298477,14.000030419921876,0,13.701530419921875,0,13.333330419921875C0,13.333330419921875,0,9.333330419921875,0,9.333330419921875C0,9.333330419921875,0,9.333330419921875,0,9.333330419921875Z" fill-rule="evenodd" fill="#FFFFFF" fill-opacity="1"/></g></g></svg>