<svg xmlns="http://www.w3.org/2000/svg" xmlns:xlink="http://www.w3.org/1999/xlink" fill="none" version="1.1" width="16" height="16" viewBox="0 0 16 16"><defs><clipPath id="master_svg0_3_49"><rect x="0" y="0" width="16" height="16" rx="0"/></clipPath></defs><g clip-path="url(#master_svg0_3_49)"><g><path d="M8.000001752929688,0.666656494140625C3.9499217529296873,0.666656494140625,0.6666717529296875,3.949906494140625,0.6666717529296875,7.999986494140625C0.6666717529296875,12.050056494140625,3.9499217529296873,15.333356494140626,8.000001752929688,15.333356494140626C12.050071752929687,15.333356494140626,15.333371752929688,12.050056494140625,15.333371752929688,7.999986494140625C15.333371752929688,3.949906494140625,12.050071752929687,0.666656494140625,8.000001752929688,0.666656494140625ZM2.0000017529296876,7.999986494140625C2.0000017529296876,4.686286494140625,4.686301752929688,1.999986494140625,8.000001752929688,1.999986494140625C11.313771752929688,1.999986494140625,13.999971752929687,4.686286494140625,13.999971752929687,7.999986494140625C13.999971752929687,11.313756494140625,11.313771752929688,13.999956494140624,8.000001752929688,13.999956494140624C4.686301752929688,13.999956494140624,2.0000017529296876,11.313756494140625,2.0000017529296876,7.999986494140625ZM6.000001752929688,5.333326494140625C5.631821752929688,5.333326494140625,5.333341752929687,5.631806494140625,5.333341752929687,5.999986494140625C5.333341752929687,6.368176494140625,5.631821752929688,6.666656494140625,6.000001752929688,6.666656494140625L6.006671752929687,6.666656494140625C6.374861752929688,6.666656494140625,6.673341752929687,6.368176494140625,6.673341752929687,5.999986494140625C6.673341752929687,5.631806494140625,6.374861752929688,5.333326494140625,6.006671752929687,5.333326494140625L6.000001752929688,5.333326494140625ZM10.000001752929688,5.333326494140625C9.631801752929688,5.333326494140625,9.333341752929687,5.631806494140625,9.333341752929687,5.999986494140625C9.333341752929687,6.368176494140625,9.631801752929688,6.666656494140625,10.000001752929688,6.666656494140625L10.006671752929687,6.666656494140625C10.374871752929687,6.666656494140625,10.673371752929688,6.368176494140625,10.673371752929688,5.999986494140625C10.673371752929688,5.631806494140625,10.374871752929687,5.333326494140625,10.006671752929687,5.333326494140625L10.000001752929688,5.333326494140625ZM4.933341752929688,8.799986494140626C5.226961752929688,8.579786494140624,5.643121752929687,8.638386494140626,5.864581752929688,8.930526494140626L5.867671752929687,8.934526494140625C5.871641752929688,8.939526494140624,5.8791817529296875,8.948926494140625,5.890211752929687,8.962056494140626C5.912311752929687,8.988386494140626,5.9481317529296875,9.029456494140625,5.996961752929687,9.080386494140624C6.095151752929688,9.182856494140625,6.242721752929688,9.321856494140626,6.433781752929687,9.460856494140625C6.818491752929687,9.740586494140626,7.350341752929688,9.999986494140625,8.000001752929688,9.999986494140625C8.649671752929688,9.999986494140625,9.181541752929688,9.740586494140626,9.566201752929688,9.460856494140625C9.757271752929688,9.321856494140626,9.904871752929688,9.182856494140625,10.003071752929687,9.080386494140624C10.051871752929687,9.029456494140625,10.087671752929687,8.988386494140626,10.109801752929688,8.962056494140626C10.120801752929687,8.948926494140625,10.128341752929687,8.939526494140624,10.132341752929687,8.934526494140625L10.135401752929688,8.930526494140626C10.356871752929688,8.638386494140626,10.773071752929688,8.579786494140624,11.066671752929688,8.799986494140626C11.361171752929687,9.020926494140625,11.420971752929688,9.438786494140626,11.199971752929688,9.733326494140625L11.177771752929688,9.762126494140626C11.166171752929687,9.776586494140625,11.150671752929687,9.795856494140626,11.131071752929687,9.819186494140625C11.091971752929688,9.865786494140625,11.036671752929687,9.928856494140625,10.965771752929687,10.002926494140626C10.824371752929688,10.150456494140625,10.617741752929687,10.344786494140624,10.350471752929687,10.539126494140625C9.818471752929687,10.926056494140624,9.017001752929687,11.333356494140626,8.000001752929688,11.333356494140626C6.982981752929687,11.333356494140626,6.1815217529296875,10.926056494140624,5.649561752929688,10.539126494140625C5.382291752929688,10.344786494140624,5.175691752929687,10.150456494140625,5.034301752929688,10.002926494140626C4.963341752929687,9.928856494140625,4.908011752929688,9.865786494140625,4.868911752929687,9.819186494140625C4.849341752929687,9.795856494140626,4.833771752929687,9.776586494140625,4.822281752929688,9.762126494140626L4.8000017529296874,9.733326494140625C4.5790917529296875,9.438786494140626,4.638781752929687,9.020926494140625,4.933341752929688,8.799986494140626Z" fill-rule="evenodd" fill="#FFFFFF" fill-opacity="1"/></g></g></svg>