<svg xmlns="http://www.w3.org/2000/svg" xmlns:xlink="http://www.w3.org/1999/xlink" fill="none" version="1.1" width="16" height="16" viewBox="0 0 16 16"><defs><clipPath id="master_svg0_2_688"><rect x="0" y="0" width="16" height="16" rx="0"/></clipPath></defs><g clip-path="url(#master_svg0_2_688)"><g><path d="M11.038513237304688,2.018635087890625C10.716573237304688,1.982245087890625,10.389173237304687,1.992795087890625,10.066713237304688,2.051545087890625C9.400113237304687,2.1730050878906253,8.786313237304688,2.494735087890625,8.307173237304688,2.973865087890625C7.828073237304688,3.452995087890625,7.506343237304687,4.066765087890625,7.384893237304688,4.733385087890625C7.263433237304688,5.399995087890625,7.348013237304688,6.087805087890625,7.627363237304688,6.705125087890625C7.741763237304688,6.957935087890625,7.687613237304688,7.255165087890625,7.491393237304687,7.451345087890625C7.491393237304687,7.451345087890625,2.8847332373046877,12.058015087890626,2.8847332373046877,12.058015087890626C2.7445332373046876,12.198215087890626,2.6657732373046876,12.388315087890625,2.6657732373046876,12.586615087890625C2.6657732373046876,12.784915087890624,2.7445332373046876,12.975015087890625,2.8847332373046877,13.115215087890626C3.0249232373046873,13.255415087890626,3.2150632373046877,13.334215087890625,3.4133232373046876,13.334215087890625C3.6115832373046874,13.334215087890625,3.8017232373046874,13.255415087890626,3.9419132373046875,13.115215087890626C3.9419132373046875,13.115215087890626,8.548573237304687,8.508545087890624,8.548573237304687,8.508545087890624C8.744773237304688,8.312345087890625,9.042043237304688,8.258215087890626,9.294843237304686,8.372615087890626C9.912173237304687,8.651945087890624,10.599973237304688,8.736545087890624,11.266573237304687,8.615085087890625C11.933143237304687,8.493615087890625,12.546943237304687,8.171885087890626,13.026143237304687,7.692745087890625C13.505243237304688,7.213625087890625,13.826943237304688,6.599855087890625,13.948443237304687,5.933245087890625C14.007143237304687,5.610805087890625,14.017743237304687,5.283415087890625,13.981343237304687,4.961445087890625C13.981343237304687,4.961445087890625,12.266743237304688,6.676095087890625,12.266743237304688,6.676095087890625C12.017443237304688,6.920405087890625,11.682343237304687,7.057215087890625,11.333343237304687,7.057215087890625C10.984313237304688,7.057215087890625,10.649243237304688,6.920375087890625,10.399973237304687,6.676075087890625C10.399973237304687,6.676075087890625,10.395243237304687,6.671405087890625,10.395243237304687,6.671405087890625C10.395243237304687,6.671405087890625,9.323843237304686,5.600005087890625,9.323843237304686,5.600005087890625C9.079573237304688,5.350765087890625,8.942773237304689,5.015645087890625,8.942773237304689,4.666645087890625C8.942773237304689,4.317635087890626,9.079573237304688,3.982545087890625,9.323913237304687,3.733305087890625C9.323913237304687,3.733305087890625,9.328573237304688,3.728545087890625,9.328573237304688,3.728545087890625C9.328573237304688,3.728545087890625,11.038513237304688,2.018635087890625,11.038513237304688,2.018635087890625C11.038513237304688,2.018635087890625,11.038513237304688,2.018635087890625,11.038513237304688,2.018635087890625ZM9.827713237304687,0.739803087890625C10.760973237304688,0.569759787890625,11.723943237304688,0.688175787890625,12.588143237304687,1.079270087890625C12.787543237304687,1.169496087890625,12.929943237304688,1.351835087890625,12.969143237304687,1.567142087890625C13.008443237304688,1.782445087890625,12.939543237304688,2.003295087890625,12.784743237304687,2.158045087890625C12.784743237304687,2.158045087890625,10.276113237304687,4.666645087890625,10.276113237304687,4.666645087890625C10.276113237304687,4.666645087890625,11.333343237304687,5.723835087890625,11.333343237304687,5.723835087890625C11.333343237304687,5.723835087890625,13.841943237304687,3.215245087890625,13.841943237304687,3.215245087890625C13.996643237304687,3.060485087890625,14.217543237304687,2.991545087890625,14.432843237304688,3.030775087890625C14.648143237304687,3.070005087890625,14.830443237304687,3.212405087890625,14.920743237304688,3.411795087890625C15.311743237304688,4.276055087890625,15.430143237304687,5.238975087890625,15.260143237304687,6.172245087890625C15.090143237304687,7.105505087890625,14.639743237304687,7.964815087890625,13.968943237304687,8.635545087890625C13.298143237304688,9.306345087890625,12.438843237304688,9.756745087890625,11.505543237304687,9.926815087890626C10.727313237304687,10.068615087890626,9.928373237304687,10.009815087890624,9.183243237304687,9.759545087890626C9.183243237304687,9.759545087890626,4.884733237304688,14.058015087890626,4.884733237304688,14.058015087890626C4.494493237304687,14.448315087890625,3.9652132373046873,14.667515087890624,3.4133232373046876,14.667515087890624C2.861433237304688,14.667515087890624,2.3321562373046874,14.448315087890625,1.9419182373046875,14.058015087890626C1.5516782373046876,13.667815087890625,1.3324432373046875,13.138515087890624,1.3324432373046875,12.586615087890625C1.3324432373046875,12.034715087890625,1.5516782373046876,11.505515087890625,1.9419192373046874,11.115215087890626C1.9419192373046874,11.115215087890626,6.240423237304688,6.816735087890625,6.240423237304688,6.816735087890625C5.990153237304687,6.071605087890625,5.931343237304688,5.272685087890625,6.0731532373046875,4.494385087890625C6.243193237304688,3.561115087890625,6.693613237304688,2.701835087890625,7.364393237304688,2.031055087890625C8.035173237304686,1.360268087890625,8.894443237304689,0.9098460878906249,9.827713237304687,0.739803087890625C9.827713237304687,0.739803087890625,9.827713237304687,0.739803087890625,9.827713237304687,0.739803087890625Z" fill-rule="evenodd" fill="#FFFFFF" fill-opacity="1"/></g></g></svg>