<svg xmlns="http://www.w3.org/2000/svg" xmlns:xlink="http://www.w3.org/1999/xlink" fill="none" version="1.1" width="16" height="16" viewBox="0 0 16 16"><defs><clipPath id="master_svg0_2_0214"><rect x="0" y="0" width="16" height="16" rx="0"/></clipPath></defs><g clip-path="url(#master_svg0_2_0214)"><g><path d="M6.666658247070313,1.999986494140625C6.489848247070313,1.999986494140625,6.320278247070313,2.070226494140625,6.195258247070313,2.195246494140625C6.0702382470703125,2.320276494140625,5.999998247070312,2.4898464941406253,5.999998247070312,2.666656494140625C5.999998247070312,2.666656494140625,5.999998247070312,3.333326494140625,5.999998247070312,3.333326494140625C5.999998247070312,3.333326494140625,9.999998247070312,3.333326494140625,9.999998247070312,3.333326494140625C9.999998247070312,3.333326494140625,9.999998247070312,2.666656494140625,9.999998247070312,2.666656494140625C9.999998247070312,2.4898464941406253,9.929728247070312,2.320276494140625,9.804728247070312,2.195246494140625C9.679728247070312,2.070226494140625,9.510128247070313,1.999986494140625,9.333328247070312,1.999986494140625C9.333328247070312,1.999986494140625,6.666658247070313,1.999986494140625,6.666658247070313,1.999986494140625C6.666658247070313,1.999986494140625,6.666658247070313,1.999986494140625,6.666658247070313,1.999986494140625ZM11.333328247070312,3.333326494140625C11.333328247070312,3.333326494140625,11.333328247070312,2.666656494140625,11.333328247070312,2.666656494140625C11.333328247070312,2.136226494140625,11.122598247070313,1.627516494140625,10.747528247070312,1.2524434941406248C10.372458247070313,0.877369494140625,9.863728247070313,0.666656494140625,9.333328247070312,0.666656494140625C9.333328247070312,0.666656494140625,6.666658247070313,0.666656494140625,6.666658247070313,0.666656494140625C6.136228247070313,0.666656494140625,5.627518247070313,0.877369494140625,5.252448247070312,1.2524434941406248C4.877378247070313,1.627516494140625,4.666658247070313,2.136226494140625,4.666658247070313,2.666656494140625C4.666658247070313,2.666656494140625,4.666658247070313,3.333326494140625,4.666658247070313,3.333326494140625C4.666658247070313,3.333326494140625,1.9999952470703124,3.333326494140625,1.9999952470703124,3.333326494140625C1.6318052470703126,3.333326494140625,1.3333282470703125,3.631806494140625,1.3333282470703125,3.999986494140625C1.3333282470703125,4.368176494140625,1.6318052470703126,4.666656494140625,1.9999952470703124,4.666656494140625C1.9999952470703124,4.666656494140625,2.6666582470703126,4.666656494140625,2.6666582470703126,4.666656494140625C2.6666582470703126,4.666656494140625,2.6666582470703126,13.333356494140626,2.6666582470703126,13.333356494140626C2.6666582470703126,13.863756494140626,2.8773782470703124,14.372456494140625,3.2524482470703124,14.747556494140625C3.6275182470703125,15.122556494140625,4.136228247070313,15.333356494140626,4.666658247070313,15.333356494140626C4.666658247070313,15.333356494140626,11.333328247070312,15.333356494140626,11.333328247070312,15.333356494140626C11.863828247070312,15.333356494140626,12.372428247070312,15.122556494140625,12.747528247070312,14.747556494140625C13.122628247070313,14.372456494140625,13.333328247070312,13.863756494140626,13.333328247070312,13.333356494140626C13.333328247070312,13.333356494140626,13.333328247070312,4.666656494140625,13.333328247070312,4.666656494140625C13.333328247070312,4.666656494140625,14.000028247070313,4.666656494140625,14.000028247070313,4.666656494140625C14.368228247070313,4.666656494140625,14.666628247070312,4.368176494140625,14.666628247070312,3.999986494140625C14.666628247070312,3.631806494140625,14.368228247070313,3.333326494140625,14.000028247070313,3.333326494140625C14.000028247070313,3.333326494140625,11.333328247070312,3.333326494140625,11.333328247070312,3.333326494140625C11.333328247070312,3.333326494140625,11.333328247070312,3.333326494140625,11.333328247070312,3.333326494140625ZM3.9999982470703124,4.666656494140625C3.9999982470703124,4.666656494140625,3.9999982470703124,13.333356494140626,3.9999982470703124,13.333356494140626C3.9999982470703124,13.510156494140626,4.0702382470703125,13.679756494140625,4.195258247070313,13.804756494140625C4.320278247070313,13.929756494140625,4.489848247070313,13.999956494140624,4.666658247070313,13.999956494140624C4.666658247070313,13.999956494140624,11.333328247070312,13.999956494140624,11.333328247070312,13.999956494140624C11.510128247070313,13.999956494140624,11.679728247070312,13.929756494140625,11.804728247070312,13.804756494140625C11.929728247070312,13.679756494140625,12.000028247070313,13.510156494140626,12.000028247070313,13.333356494140626C12.000028247070313,13.333356494140626,12.000028247070313,4.666656494140625,12.000028247070313,4.666656494140625C12.000028247070313,4.666656494140625,3.9999982470703124,4.666656494140625,3.9999982470703124,4.666656494140625C3.9999982470703124,4.666656494140625,3.9999982470703124,4.666656494140625,3.9999982470703124,4.666656494140625ZM6.666658247070313,6.666656494140625C7.034848247070313,6.666656494140625,7.3333282470703125,6.965126494140625,7.3333282470703125,7.333326494140625C7.3333282470703125,7.333326494140625,7.3333282470703125,11.333356494140626,7.3333282470703125,11.333356494140626C7.3333282470703125,11.701556494140625,7.034848247070313,11.999956494140624,6.666658247070313,11.999956494140624C6.298478247070313,11.999956494140624,5.999998247070312,11.701556494140625,5.999998247070312,11.333356494140626C5.999998247070312,11.333356494140626,5.999998247070312,7.333326494140625,5.999998247070312,7.333326494140625C5.999998247070312,6.965126494140625,6.298478247070313,6.666656494140625,6.666658247070313,6.666656494140625C6.666658247070313,6.666656494140625,6.666658247070313,6.666656494140625,6.666658247070313,6.666656494140625ZM8.666658247070313,7.333326494140625C8.666658247070313,6.965126494140625,8.965128247070313,6.666656494140625,9.333328247070312,6.666656494140625C9.701528247070312,6.666656494140625,9.999998247070312,6.965126494140625,9.999998247070312,7.333326494140625C9.999998247070312,7.333326494140625,9.999998247070312,11.333356494140626,9.999998247070312,11.333356494140626C9.999998247070312,11.701556494140625,9.701528247070312,11.999956494140624,9.333328247070312,11.999956494140624C8.965128247070313,11.999956494140624,8.666658247070313,11.701556494140625,8.666658247070313,11.333356494140626C8.666658247070313,11.333356494140626,8.666658247070313,7.333326494140625,8.666658247070313,7.333326494140625C8.666658247070313,7.333326494140625,8.666658247070313,7.333326494140625,8.666658247070313,7.333326494140625Z" fill-rule="evenodd" fill="#FFFFFF" fill-opacity="1"/></g></g></svg>