<svg xmlns="http://www.w3.org/2000/svg" xmlns:xlink="http://www.w3.org/1999/xlink" fill="none" version="1.1" width="16" height="16" viewBox="0 0 16 16"><defs><clipPath id="master_svg0_2_579"><rect x="0" y="0" width="16" height="16" rx="0"/></clipPath></defs><g clip-path="url(#master_svg0_2_579)"><g><path d="M2.6175317529296875,5.345761752929688C2.222171752929688,6.145981752929687,2.0000017529296876,7.047041752929688,2.0000017529296876,8.000001752929688C2.0000017529296876,8.701271752929687,2.1203117529296875,9.374471752929688,2.3414217529296875,10.000001752929688C2.3414217529296875,10.000001752929688,5.305191752929687,10.000001752929688,5.305191752929687,10.000001752929688C5.305191752929687,10.000001752929688,4.351071752929688,8.347741752929688,4.351071752929688,8.347741752929688C4.345501752929687,8.338601752929687,4.340161752929688,8.329401752929687,4.335061752929688,8.320001752929688C4.335061752929688,8.320001752929688,2.6175317529296875,5.345761752929688,2.6175317529296875,5.345761752929688C2.6175317529296875,5.345761752929688,2.6175317529296875,5.345761752929688,2.6175317529296875,5.345761752929688ZM2.0632817529296874,3.6941017529296873C1.1847917529296876,4.903221752929688,0.6666717529296875,6.391111752929688,0.6666717529296875,8.000001752929688C0.6666717529296875,9.027471752929687,0.8779747529296875,10.005601752929687,1.2594947529296876,10.893271752929687C1.2693217529296876,10.920471752929688,1.2808667529296875,10.946771752929687,1.2940007529296875,10.972171752929688C2.3227017529296874,13.289771752929688,4.517541752929688,14.974871752929687,7.133781752929687,15.282771752929687C7.1640917529296875,15.288271752929688,7.194561752929688,15.291571752929688,7.225001752929687,15.292871752929688C7.479671752929687,15.319571752929688,7.738271752929688,15.333371752929688,8.000001752929688,15.333371752929688C10.397341752929687,15.333371752929688,12.526071752929688,14.182971752929687,13.864171752929687,12.404071752929687C13.891571752929687,12.373371752929687,13.915771752929688,12.340571752929687,13.936771752929687,12.305871752929688C14.815171752929688,11.096771752929687,15.333371752929688,9.608871752929687,15.333371752929688,8.000001752929688C15.333371752929688,6.972541752929687,15.121971752929687,5.994431752929687,14.740571752929688,5.106761752929687C14.730671752929688,5.0795617529296875,14.719171752929688,5.0531917529296875,14.705971752929688,5.027771752929688C13.677271752929688,2.7102217529296877,11.482471752929687,1.0251637529296875,8.866201752929687,0.7172940529296875C8.835941752929687,0.7117730529296875,8.805471752929687,0.7084070529296875,8.775001752929688,0.7071380529296875C8.520341752929689,0.6803869529296875,8.261741752929687,0.6666717529296875,8.000001752929688,0.6666717529296875C5.602641752929688,0.6666717529296875,3.4739617529296876,1.8170517529296875,2.1358817529296874,3.5959117529296876C2.1085017529296874,3.6265717529296877,2.0842517529296876,3.6594717529296874,2.0632817529296874,3.6941017529296873C2.0632817529296874,3.6941017529296873,2.0632817529296874,3.6941017529296873,2.0632817529296874,3.6941017529296873ZM3.4388017529296877,4.101701752929687C3.4388017529296877,4.101701752929687,4.920051752929687,6.666791752929687,4.920051752929687,6.666791752929687C4.920051752929687,6.666791752929687,5.879121752929687,5.005951752929687,5.879121752929687,5.005951752929687C5.881211752929688,5.002261752929687,5.883321752929687,4.998601752929687,5.885481752929688,4.9949617529296875C5.885481752929688,4.9949617529296875,7.607671752929687,2.0126217529296877,7.607671752929687,2.0126217529296877C5.941081752929687,2.1202017529296873,4.459801752929687,2.9082017529296875,3.4388017529296877,4.101701752929687C3.4388017529296877,4.101701752929687,3.4388017529296877,4.101701752929687,3.4388017529296877,4.101701752929687ZM9.096871752929687,2.1000317529296875C9.096871752929687,2.1000317529296875,7.614741752929688,4.6666717529296875,7.614741752929688,4.6666717529296875C7.614741752929688,4.6666717529296875,9.527201752929688,4.6666717529296875,9.527201752929688,4.6666717529296875C9.535341752929687,4.666521752929688,9.543471752929687,4.666521752929688,9.551541752929687,4.6666717529296875C9.551541752929687,4.6666717529296875,12.989671752929688,4.6666717529296875,12.989671752929688,4.6666717529296875C12.107171752929688,3.3482617529296874,10.715971752929688,2.3991317529296876,9.096871752929687,2.1000317529296875C9.096871752929687,2.1000317529296875,9.096871752929687,2.1000317529296875,9.096871752929687,2.1000317529296875ZM13.658571752929687,6.000001752929688C13.658571752929687,6.000001752929688,10.694771752929688,6.000001752929688,10.694771752929688,6.000001752929688C10.694771752929688,6.000001752929688,11.648971752929688,7.652201752929687,11.648971752929688,7.652201752929687C11.654471752929688,7.661401752929687,11.659871752929687,7.670671752929687,11.664971752929688,7.680001752929687C11.664971752929688,7.680001752929687,13.382471752929687,10.654271752929688,13.382471752929687,10.654271752929688C13.777871752929688,9.854001752929687,13.999971752929687,8.952941752929688,13.999971752929687,8.000001752929688C13.999971752929687,7.298731752929688,13.879671752929687,6.625561752929688,13.658571752929687,6.000001752929688C13.658571752929687,6.000001752929688,13.658571752929687,6.000001752929688,13.658571752929687,6.000001752929688ZM12.561171752929688,11.898371752929688C12.561171752929688,11.898371752929688,11.079971752929687,9.333201752929687,11.079971752929687,9.333201752929687C11.079971752929687,9.333201752929687,10.120871752929688,10.994071752929688,10.120871752929688,10.994071752929688C10.118801752929688,10.997771752929687,10.116671752929687,11.001371752929687,10.114541752929687,11.005071752929688C10.114541752929687,11.005071752929688,8.392341752929688,13.987371752929688,8.392341752929688,13.987371752929688C10.058941752929687,13.879771752929688,11.540171752929687,13.091771752929688,12.561171752929688,11.898371752929688C12.561171752929688,11.898371752929688,12.561171752929688,11.898371752929688,12.561171752929688,11.898371752929688ZM6.903141752929687,13.899971752929687C6.903141752929687,13.899971752929687,8.385271752929688,11.333371752929688,8.385271752929688,11.333371752929688C8.385271752929688,11.333371752929688,6.472801752929687,11.333371752929688,6.472801752929687,11.333371752929688C6.4646717529296875,11.333471752929688,6.456561752929687,11.333471752929688,6.4484617529296875,11.333371752929688C6.4484617529296875,11.333371752929688,3.0103717529296876,11.333371752929688,3.0103717529296876,11.333371752929688C3.8928817529296875,12.651771752929687,5.284061752929688,13.600871752929688,6.903141752929687,13.899971752929687C6.903141752929687,13.899971752929687,6.903141752929687,13.899971752929687,6.903141752929687,13.899971752929687ZM6.844861752929687,10.000001752929688C6.844861752929687,10.000001752929688,9.155201752929688,10.000001752929688,9.155201752929688,10.000001752929688C9.155201752929688,10.000001752929688,10.310141752929688,8.000071752929689,10.310141752929688,8.000071752929689C10.310141752929688,8.000071752929689,9.155141752929687,6.000001752929688,9.155141752929687,6.000001752929688C9.155141752929687,6.000001752929688,6.844771752929687,6.000001752929688,6.844771752929687,6.000001752929688C6.844771752929687,6.000001752929688,5.689891752929688,7.999941752929687,5.689891752929688,7.999941752929687C5.689891752929688,7.999941752929687,6.844861752929687,10.000001752929688,6.844861752929687,10.000001752929688C6.844861752929687,10.000001752929688,6.844861752929687,10.000001752929688,6.844861752929687,10.000001752929688Z" fill-rule="evenodd" fill="#FFFFFF" fill-opacity="1"/></g></g></svg>