<svg xmlns="http://www.w3.org/2000/svg" xmlns:xlink="http://www.w3.org/1999/xlink" fill="none" version="1.1" width="16" height="16" viewBox="0 0 16 16"><defs><clipPath id="master_svg0_2_624"><rect x="0" y="0" width="16" height="16" rx="0"/></clipPath></defs><g clip-path="url(#master_svg0_2_624)"><g><path d="M4.866731752929687,1.370163740234375C6.363161752929687,0.662992550234375,8.054801752929688,0.482832740234375,9.666601752929688,0.858980740234375C11.278371752929688,1.2351267402343749,12.715571752929687,2.145453740234375,13.744371752929688,3.441953740234375C14.773271752929688,4.738443740234375,15.333271752929688,6.344853740234375,15.333371752929688,7.999953740234375C15.333371752929688,7.999953740234375,15.333371752929688,8.666683740234376,15.333371752929688,8.666683740234376C15.333371752929688,9.373883740234374,15.052371752929687,10.052213740234375,14.552271752929688,10.552283740234374C14.052171752929688,11.052383740234376,13.373971752929688,11.333383740234375,12.666671752929688,11.333383740234375C11.959371752929687,11.333383740234375,11.281171752929687,11.052383740234376,10.781071752929687,10.552283740234374C10.675171752929687,10.446413740234375,10.579141752929688,10.332613740234375,10.493541752929687,10.212153740234376C9.882941752929687,10.899983740234376,8.992071752929688,11.333383740234375,8.000001752929688,11.333383740234375C6.159061752929688,11.333383740234375,4.666681752929687,9.840953740234376,4.666681752929687,8.000013740234376C4.666681752929687,6.159053740234375,6.159061752929688,4.6666737402343745,8.000001752929688,4.6666737402343745C8.750401752929687,4.6666737402343745,9.442941752929688,4.914633740234375,10.000001752929688,5.333093740234375C10.000141752929688,4.965013740234375,10.298541752929687,4.6666737402343745,10.666671752929688,4.6666737402343745C11.034871752929687,4.6666737402343745,11.333371752929688,4.965153740234375,11.333371752929688,5.333333740234375C11.333371752929688,5.333333740234375,11.333371752929688,8.666683740234376,11.333371752929688,8.666683740234376C11.333371752929688,9.020283740234374,11.473771752929688,9.359413740234375,11.723871752929687,9.609483740234374C11.973971752929687,9.859553740234375,12.313071752929687,10.000013740234374,12.666671752929688,10.000013740234374C13.020271752929688,10.000013740234374,13.359471752929688,9.859553740234375,13.609471752929688,9.609483740234374C13.859571752929687,9.359413740234375,13.999971752929687,9.020283740234374,13.999971752929687,8.666683740234376C13.999971752929687,8.666683740234376,13.999971752929687,8.000013740234376,13.999971752929687,8.000013740234376C13.999971752929687,8.000013740234376,13.999971752929687,8.000013740234376,13.999971752929687,8.000013740234376C13.999971752929687,6.645873740234375,13.541771752929687,5.331523740234375,12.699971752929688,4.270763740234376C11.858171752929687,3.209993740234375,10.682371752929688,2.465183740234375,9.363601752929688,2.1574237402343748C8.044871752929687,1.849673740234375,6.660771752929688,1.997073740234375,5.436421752929688,2.5756637402343747C4.212071752929687,3.154263740234375,3.2194517529296873,4.130013740234375,2.6199617529296875,5.344273740234375C2.0204817529296877,6.558533740234375,1.8493917529296875,7.939883740234375,2.1345117529296873,9.263683740234375C2.4196317529296874,10.587553740234375,3.1442017529296873,11.775983740234375,4.1903917529296875,12.635783740234375C5.236581752929688,13.495583740234375,6.542871752929687,13.976283740234376,7.8968717529296875,13.999583740234375C9.250801752929688,14.022783740234376,10.572871752929688,13.587383740234374,11.647971752929687,12.763983740234375C11.940371752929687,12.540183740234376,12.358771752929687,12.595683740234374,12.582671752929688,12.887983740234375C12.806471752929687,13.180383740234374,12.750971752929688,13.598783740234374,12.458671752929687,13.822583740234375C11.144571752929687,14.828983740234374,9.528801752929688,15.361183740234376,7.873941752929688,15.332683740234375C6.219061752929687,15.304183740234375,4.622481752929687,14.716783740234375,3.3438017529296875,13.665883740234374C2.0651217529296875,12.614983740234376,1.1795497529296874,11.162483740234375,0.8310687529296875,9.544413740234376C0.4825867529296875,7.926413740234375,0.6916984529296875,6.238123740234375,1.4243987529296875,4.754023740234375C2.1571017529296874,3.269933740234375,3.3703017529296875,2.077333740234375,4.866731752929687,1.370163740234375C4.866731752929687,1.370163740234375,4.866731752929687,1.370163740234375,4.866731752929687,1.370163740234375ZM10.000001752929688,8.000013740234376C10.000001752929688,6.895433740234375,9.104601752929687,6.000003740234375,8.000001752929688,6.000003740234375C6.895441752929687,6.000003740234375,6.000011752929687,6.895433740234375,6.000011752929687,8.000013740234376C6.000011752929687,9.104553740234374,6.895441752929687,10.000013740234374,8.000001752929688,10.000013740234374C9.104601752929687,10.000013740234374,10.000001752929688,9.104553740234374,10.000001752929688,8.000013740234376C10.000001752929688,8.000013740234376,10.000001752929688,8.000013740234376,10.000001752929688,8.000013740234376Z" fill-rule="evenodd" fill="#FFFFFF" fill-opacity="1"/></g></g></svg>