<svg xmlns="http://www.w3.org/2000/svg" xmlns:xlink="http://www.w3.org/1999/xlink" fill="none" version="1.1" width="16" height="16" viewBox="0 0 16 16"><defs><clipPath id="master_svg0_2_859"><rect x="0" y="0" width="16" height="16" rx="0"/></clipPath></defs><g clip-path="url(#master_svg0_2_859)"><g><path d="M8.000001752929688,1.999986494140625C4.686301752929688,1.999986494140625,2.0000017529296876,4.686286494140625,2.0000017529296876,7.999986494140625C2.0000017529296876,11.313756494140625,4.686301752929688,13.999956494140624,8.000001752929688,13.999956494140624C11.313771752929688,13.999956494140624,13.999971752929687,11.313756494140625,13.999971752929687,7.999986494140625C13.999971752929687,4.686286494140625,11.313771752929688,1.999986494140625,8.000001752929688,1.999986494140625C8.000001752929688,1.999986494140625,8.000001752929688,1.999986494140625,8.000001752929688,1.999986494140625ZM0.6666717529296875,7.999986494140625C0.6666717529296875,3.949906494140625,3.9499217529296873,0.666656494140625,8.000001752929688,0.666656494140625C12.050071752929687,0.666656494140625,15.333371752929688,3.949906494140625,15.333371752929688,7.999986494140625C15.333371752929688,12.050056494140625,12.050071752929687,15.333356494140626,8.000001752929688,15.333356494140626C3.9499217529296873,15.333356494140626,0.6666717529296875,12.050056494140625,0.6666717529296875,7.999986494140625C0.6666717529296875,7.999986494140625,0.6666717529296875,7.999986494140625,0.6666717529296875,7.999986494140625ZM8.000001752929688,6.666656494140625C7.263621752929687,6.666656494140625,6.6666717529296875,7.263606494140625,6.6666717529296875,7.999986494140625C6.6666717529296875,8.736386494140625,7.263621752929687,9.333326494140625,8.000001752929688,9.333326494140625C8.736401752929687,9.333326494140625,9.333341752929687,8.736386494140625,9.333341752929687,7.999986494140625C9.333341752929687,7.263606494140625,8.736401752929687,6.666656494140625,8.000001752929688,6.666656494140625C8.000001752929688,6.666656494140625,8.000001752929688,6.666656494140625,8.000001752929688,6.666656494140625ZM5.333341752929687,7.999986494140625C5.333341752929687,6.527226494140625,6.527241752929688,5.333326494140625,8.000001752929688,5.333326494140625C9.472741752929688,5.333326494140625,10.666671752929688,6.527226494140625,10.666671752929688,7.999986494140625C10.666671752929688,9.472726494140625,9.472741752929688,10.666656494140625,8.000001752929688,10.666656494140625C6.527241752929688,10.666656494140625,5.333341752929687,9.472726494140625,5.333341752929687,7.999986494140625C5.333341752929687,7.999986494140625,5.333341752929687,7.999986494140625,5.333341752929687,7.999986494140625Z" fill-rule="evenodd" fill="#FFFFFF" fill-opacity="1"/></g></g></svg>