<svg xmlns="http://www.w3.org/2000/svg" xmlns:xlink="http://www.w3.org/1999/xlink" fill="none" version="1.1" width="16" height="16" viewBox="0 0 16 16"><defs><clipPath id="master_svg0_2_689"><rect x="0" y="0" width="16" height="16" rx="0"/></clipPath></defs><g clip-path="url(#master_svg0_2_689)"><g><path d="M5.7784343310546875,1.3294378834375C6.685394331054687,1.2968210234375,7.587994331054688,1.4703855234375,8.418194331054687,1.8370655234375C9.248394331054687,2.2037485234375,9.984594331054687,2.7539915234375,10.571364331054687,3.4463615234375C11.045064331054688,4.0052715234375,11.411364331054687,4.6450315234375,11.653664331054687,5.3333315234375C11.653664331054687,5.3333315234375,11.999564331054687,5.3333315234375,11.999564331054687,5.3333315234375C12.849564331054687,5.3327715234375,13.678264331054688,5.6030615234375,14.364364331054688,6.1049815234375C15.050564331054687,6.6070015234375,15.558964331054687,7.3146315234375,15.815864331054687,8.1251615234375C16.07266433105469,8.935761523437499,16.064464331054687,9.8070315234375,15.792564331054688,10.6126315234375C15.520564331054688,11.4182615234375,14.999064331054688,12.1162615234375,14.303564331054687,12.6053615234375C14.002364331054688,12.8170615234375,13.586464331054687,12.7446615234375,13.374764331054687,12.4434615234375C13.162964331054688,12.1422615234375,13.235364331054688,11.7264615234375,13.536564331054688,11.5146615234375C14.000264331054687,11.1886315234375,14.347964331054687,10.7232915234375,14.529264331054687,10.1862315234375C14.710564331054687,9.6491615234375,14.715964331054687,9.0682915234375,14.544764331054688,8.5278915234375C14.373564331054688,7.9875315234375,14.034564331054687,7.5157715234375,13.577164331054687,7.1810915234375C13.119664331054688,6.8464115234375,12.567364331054687,6.6662215234375,12.000564331054688,6.6666615234375C12.000564331054688,6.6666615234375,11.160064331054688,6.6666615234375,11.160064331054688,6.6666615234375C10.855664331054687,6.6666615234375,10.589964331054688,6.4605115234375,10.514264331054688,6.1656915234375C10.338864331054687,5.4819515234375,10.010564331054688,4.8469215234375,9.554194331054687,4.3084115234375C9.097794331054688,3.7698915234375,8.525194331054687,3.3419315234375,7.879534331054687,3.0567315234375C7.233794331054687,2.7715315234375,6.531784331054688,2.6365415234375,5.826354331054688,2.6619115234375C5.120914331054688,2.6872815234375,4.430424331054687,2.8723515234375,3.8068643310546877,3.2031915234375C3.1833043310546874,3.5340315234375,2.6429243310546875,4.0020215234375005,2.2264043310546877,4.571931523437501C1.8098843310546875,5.141831523437499,1.5280743310546876,5.7988015234375,1.4021943310546876,6.4933815234375C1.2763143310546874,7.1879515234375,1.3096543310546875,7.9020415234375,1.4996843310546875,8.5818915234375C1.6897143310546876,9.2616915234375,2.0314943310546876,9.8895615234375,2.4992943310546876,10.4181615234375C2.7432943310546873,10.6938915234375,2.7175743310546876,11.1152315234375,2.4418443310546873,11.3592615234375C2.1661143310546875,11.6032615234375,1.7447943310546874,11.5775615234375,1.5007943310546874,11.3018315234375C0.8993313310546875,10.6221615234375,0.4599013310546875,9.8148915234375,0.2155733310546875,8.940831523437499C-0.0287533689453125,8.0667615234375,-0.0716085689453125,7.1486415234375,0.0902350310546875,6.2556115234375C0.2520773310546875,5.3625915234375,0.6144013310546875,4.517911523437499,1.1499343310546875,3.7851715234375C1.6854543310546874,3.0524315234375,2.3802343310546874,2.4507315234375,3.1819543310546874,2.0253685234375C3.9836743310546874,1.6000035234375,4.871444331054687,1.3620547234375,5.7784343310546875,1.3294378834375C5.7784343310546875,1.3294378834375,5.7784343310546875,1.3294378834375,5.7784343310546875,1.3294378834375ZM8.000064331054688,7.3333315234375C8.368264331054688,7.3333315234375,8.666734331054688,7.6318115234375,8.666734331054688,8.0000315234375C8.666734331054688,8.0000315234375,8.666734331054688,12.3904615234375,8.666734331054688,12.3904615234375C8.666734331054688,12.3904615234375,10.195364331054687,10.8618915234375,10.195364331054687,10.8618915234375C10.455664331054688,10.6015615234375,10.877764331054687,10.6015615234375,11.138164331054687,10.8618915234375C11.398464331054688,11.1222915234375,11.398464331054688,11.5443615234375,11.138164331054687,11.8047615234375C11.138164331054687,11.8047615234375,8.471464331054687,14.4714615234375,8.471464331054687,14.4714615234375C8.211064331054688,14.7317615234375,7.788994331054687,14.7317615234375,7.528664331054688,14.4714615234375C7.528664331054688,14.4714615234375,4.861974331054688,11.8047615234375,4.861974331054688,11.8047615234375C4.601614331054687,11.5443615234375,4.601614331054687,11.1222915234375,4.861974331054688,10.8618915234375C5.122314331054688,10.6015615234375,5.5444343310546875,10.6015615234375,5.804774331054688,10.8618915234375C5.804774331054688,10.8618915234375,7.333394331054688,12.3904615234375,7.333394331054688,12.3904615234375C7.333394331054688,12.3904615234375,7.333394331054688,8.0000315234375,7.333394331054688,8.0000315234375C7.333394331054688,7.6318115234375,7.631864331054688,7.3333315234375,8.000064331054688,7.3333315234375C8.000064331054688,7.3333315234375,8.000064331054688,7.3333315234375,8.000064331054688,7.3333315234375Z" fill-rule="evenodd" fill="#FFFFFF" fill-opacity="1"/></g></g></svg>